<?xml version="1.0" encoding="UTF-8" standalone="no"?>
<!DOCTYPE svg PUBLIC "-//W3C//DTD SVG 1.1//EN"
 "http://www.w3.org/Graphics/SVG/1.1/DTD/svg11.dtd">
<!-- Generated by graphviz version 2.43.0 (0)
 -->
<!-- Title: G Pages: 1 -->
<svg width="307pt" height="730pt"
 viewBox="0.00 0.00 307.00 730.00" xmlns="http://www.w3.org/2000/svg" xmlns:xlink="http://www.w3.org/1999/xlink">
<g id="graph0" class="graph" transform="scale(1 1) rotate(0) translate(4 726)">
<title>G</title>
<polygon fill="white" stroke="transparent" points="-4,4 -4,-726 303,-726 303,4 -4,4"/>
<g id="clust1" class="cluster">
<title>cluster0</title>
<polygon fill="none" stroke="black" stroke-dasharray="5,2" points="36,-479 36,-714 245,-714 245,-479 36,-479"/>
<text text-anchor="middle" x="186.5" y="-698.8" font-family="Times,serif" font-size="14.00">Clusterization</text>
</g>
<g id="clust2" class="cluster">
<title>cluster1</title>
<polygon fill="none" stroke="black" stroke-dasharray="5,2" points="12,-124 12,-460 291,-460 291,-124 12,-124"/>
<text text-anchor="middle" x="235.5" y="-444.8" font-family="Times,serif" font-size="14.00">Track finding</text>
</g>
<g id="clust3" class="cluster">
<title>cluster2</title>
<polygon fill="none" stroke="black" stroke-dasharray="5,2" points="8,-8 8,-91 288,-91 288,-8 8,-8"/>
<text text-anchor="middle" x="235.5" y="-75.8" font-family="Times,serif" font-size="14.00">Track fitting</text>
</g>
<!-- activations -->
<g id="node1" class="node">
<title>activations</title>
<polygon fill="none" stroke="black" points="194,-683 68,-683 68,-647 194,-647 194,-683"/>
<text text-anchor="middle" x="131" y="-661.3" font-family="Times,serif" font-size="14.00">Cells</text>
</g>
<!-- clusters -->
<g id="node2" class="node">
<title>clusters</title>
<polygon fill="none" stroke="black" points="170,-596 44,-596 44,-560 170,-560 170,-596"/>
<text text-anchor="middle" x="107" y="-574.3" font-family="Times,serif" font-size="14.00">Clusters</text>
</g>
<!-- activations&#45;&gt;clusters -->
<g id="edge1" class="edge">
<title>activations&#45;&gt;clusters</title>
<path fill="none" stroke="black" d="M119.9,-646.8C116.85,-641.31 113.87,-635.08 112,-629 109.8,-621.86 108.52,-613.9 107.78,-606.47"/>
<polygon fill="black" stroke="black" points="111.27,-606.18 107.06,-596.46 104.28,-606.68 111.27,-606.18"/>
</g>
<!-- activations&#45;&gt;clusters -->
<g id="edge2" class="edge">
<title>activations&#45;&gt;clusters</title>
<path fill="none" stroke="blue" stroke-dasharray="5,2" d="M126.14,-646.8C122.83,-635.05 118.36,-619.24 114.58,-605.84"/>
<polygon fill="blue" stroke="blue" points="117.94,-604.85 111.85,-596.18 111.2,-606.75 117.94,-604.85"/>
<text text-anchor="middle" x="135.5" y="-617.8" font-family="Times,serif" font-size="14.00">CCL</text>
</g>
<!-- measurements -->
<g id="node3" class="node">
<title>measurements</title>
<polygon fill="none" stroke="black" points="170,-523 44,-523 44,-487 170,-487 170,-523"/>
<text text-anchor="middle" x="107" y="-501.3" font-family="Times,serif" font-size="14.00">Measurements</text>
</g>
<!-- activations&#45;&gt;measurements -->
<g id="edge3" class="edge">
<title>activations&#45;&gt;measurements</title>
<path fill="none" stroke="green" d="M148.73,-646.91C167.99,-626.18 194.12,-590.24 179,-560 172.7,-547.4 161.92,-536.98 150.58,-528.77"/>
<polygon fill="green" stroke="green" points="152.53,-525.87 142.29,-523.18 148.62,-531.67 152.53,-525.87"/>
<text text-anchor="middle" x="198.5" y="-574.3" font-family="Times,serif" font-size="14.00">CCA</text>
</g>
<!-- clusters&#45;&gt;measurements -->
<g id="edge4" class="edge">
<title>clusters&#45;&gt;measurements</title>
<path fill="none" stroke="black" d="M101.12,-559.81C100.28,-551.79 100.05,-542.05 100.42,-533.07"/>
<polygon fill="black" stroke="black" points="103.92,-533.25 101.14,-523.03 96.94,-532.75 103.92,-533.25"/>
</g>
<!-- clusters&#45;&gt;measurements -->
<g id="edge5" class="edge">
<title>clusters&#45;&gt;measurements</title>
<path fill="none" stroke="blue" stroke-dasharray="5,2" d="M112.88,-559.81C113.72,-551.79 113.95,-542.05 113.58,-533.07"/>
<polygon fill="blue" stroke="blue" points="117.06,-532.75 112.86,-523.03 110.08,-533.25 117.06,-532.75"/>
</g>
<!-- spacepoints -->
<g id="node4" class="node">
<title>spacepoints</title>
<polygon fill="none" stroke="black" points="170,-429 44,-429 44,-393 170,-393 170,-429"/>
<text text-anchor="middle" x="107" y="-407.3" font-family="Times,serif" font-size="14.00">Spacepoints</text>
</g>
<!-- measurements&#45;&gt;spacepoints -->
<g id="edge6" class="edge">
<title>measurements&#45;&gt;spacepoints</title>
<path fill="none" stroke="black" d="M96.18,-486.7C93.27,-473.33 92.73,-454.59 94.55,-439.22"/>
<polygon fill="black" stroke="black" points="98.03,-439.66 96.19,-429.23 91.12,-438.53 98.03,-439.66"/>
</g>
<!-- measurements&#45;&gt;spacepoints -->
<g id="edge7" class="edge">
<title>measurements&#45;&gt;spacepoints</title>
<path fill="none" stroke="green" stroke-dasharray="5,2" d="M107,-486.7C107,-473.46 107,-454.95 107,-439.66"/>
<polygon fill="green" stroke="green" points="110.5,-439.23 107,-429.23 103.5,-439.23 110.5,-439.23"/>
</g>
<!-- measurements&#45;&gt;spacepoints -->
<g id="edge8" class="edge">
<title>measurements&#45;&gt;spacepoints</title>
<path fill="none" stroke="blue" stroke-dasharray="5,2" d="M117.82,-486.7C120.73,-473.33 121.27,-454.59 119.45,-439.22"/>
<polygon fill="blue" stroke="blue" points="122.88,-438.53 117.81,-429.23 115.97,-439.66 122.88,-438.53"/>
</g>
<!-- bins -->
<g id="node5" class="node">
<title>bins</title>
<polygon fill="none" stroke="black" points="146,-342 20,-342 20,-306 146,-306 146,-342"/>
<text text-anchor="middle" x="83" y="-320.3" font-family="Times,serif" font-size="14.00">Bins</text>
</g>
<!-- spacepoints&#45;&gt;bins -->
<g id="edge9" class="edge">
<title>spacepoints&#45;&gt;bins</title>
<path fill="none" stroke="green" d="M95.9,-392.8C92.85,-387.31 89.87,-381.08 88,-375 85.8,-367.86 84.52,-359.9 83.78,-352.47"/>
<polygon fill="green" stroke="green" points="87.27,-352.18 83.06,-342.46 80.28,-352.68 87.27,-352.18"/>
</g>
<!-- spacepoints&#45;&gt;bins -->
<g id="edge10" class="edge">
<title>spacepoints&#45;&gt;bins</title>
<path fill="none" stroke="black" d="M102.14,-392.8C98.83,-381.05 94.36,-365.24 90.58,-351.84"/>
<polygon fill="black" stroke="black" points="93.94,-350.85 87.85,-342.18 87.2,-352.75 93.94,-350.85"/>
<text text-anchor="middle" x="124" y="-363.8" font-family="Times,serif" font-size="14.00">Binning</text>
</g>
<!-- seeds -->
<g id="node6" class="node">
<title>seeds</title>
<polygon fill="none" stroke="black" points="146,-255 20,-255 20,-219 146,-219 146,-255"/>
<text text-anchor="middle" x="83" y="-233.3" font-family="Times,serif" font-size="14.00">Seeds</text>
</g>
<!-- spacepoints&#45;&gt;seeds -->
<g id="edge11" class="edge">
<title>spacepoints&#45;&gt;seeds</title>
<path fill="none" stroke="green" stroke-dasharray="5,2" d="M140.22,-392.9C146.57,-388.02 152.36,-382.06 156,-375 158.61,-369.93 162.93,-367.53 155,-306 153.07,-291.03 156.18,-284.98 147,-273 143.45,-268.36 139.09,-264.26 134.35,-260.65"/>
<polygon fill="green" stroke="green" points="136.3,-257.75 126.06,-255.04 132.38,-263.54 136.3,-257.75"/>
<text text-anchor="middle" x="187" y="-320.3" font-family="Times,serif" font-size="14.00">Seeding</text>
</g>
<!-- bins&#45;&gt;seeds -->
<g id="edge12" class="edge">
<title>bins&#45;&gt;seeds</title>
<path fill="none" stroke="blue" d="M77.45,-305.8C76.19,-294.16 75.92,-278.55 76.65,-265.24"/>
<polygon fill="blue" stroke="blue" points="80.15,-265.42 77.45,-255.18 73.17,-264.87 80.15,-265.42"/>
</g>
<!-- bins&#45;&gt;seeds -->
<g id="edge13" class="edge">
<title>bins&#45;&gt;seeds</title>
<path fill="none" stroke="green" d="M88.55,-305.8C89.81,-294.16 90.08,-278.55 89.35,-265.24"/>
<polygon fill="green" stroke="green" points="92.83,-264.87 88.55,-255.18 85.85,-265.42 92.83,-264.87"/>
</g>
<!-- bins&#45;&gt;seeds -->
<g id="edge14" class="edge">
<title>bins&#45;&gt;seeds</title>
<path fill="none" stroke="black" stroke-dasharray="5,2" d="M84.27,-305.88C84.83,-296.23 85.31,-283.94 85,-273 84.93,-270.44 84.82,-267.79 84.7,-265.13"/>
<polygon fill="black" stroke="black" points="88.2,-264.88 84.17,-255.08 81.21,-265.25 88.2,-264.88"/>
<text text-anchor="middle" x="114" y="-276.8" font-family="Times,serif" font-size="14.00">Seeding</text>
</g>
<!-- prototracks -->
<g id="node7" class="node">
<title>prototracks</title>
<polygon fill="none" stroke="black" points="146,-168 20,-168 20,-132 146,-132 146,-168"/>
<text text-anchor="middle" x="83" y="-146.3" font-family="Times,serif" font-size="14.00">Prototracks</text>
</g>
<!-- seeds&#45;&gt;prototracks -->
<g id="edge15" class="edge">
<title>seeds&#45;&gt;prototracks</title>
<path fill="none" stroke="green" d="M70.79,-218.73C65.54,-209.24 61.17,-197.16 64,-186 64.76,-183.01 65.83,-180.01 67.08,-177.08"/>
<polygon fill="green" stroke="green" points="70.22,-178.61 71.53,-168.1 63.95,-175.51 70.22,-178.61"/>
</g>
<!-- seeds&#45;&gt;prototracks -->
<g id="edge16" class="edge">
<title>seeds&#45;&gt;prototracks</title>
<path fill="none" stroke="black" d="M83,-218.8C83,-207.16 83,-191.55 83,-178.24"/>
<polygon fill="black" stroke="black" points="86.5,-178.18 83,-168.18 79.5,-178.18 86.5,-178.18"/>
<text text-anchor="middle" x="183" y="-189.8" font-family="Times,serif" font-size="14.00">Track parameter estimation</text>
</g>
<!-- tracks -->
<g id="node8" class="node">
<title>tracks</title>
<polygon fill="none" stroke="black" points="146,-56 20,-56 20,-20 146,-20 146,-56"/>
<polygon fill="none" stroke="black" points="150,-60 16,-60 16,-16 150,-16 150,-60"/>
<text text-anchor="middle" x="83" y="-34.3" font-family="Times,serif" font-size="14.00">Tracks</text>
</g>
<!-- prototracks&#45;&gt;tracks -->
<g id="edge17" class="edge">
<title>prototracks&#45;&gt;tracks</title>
<path fill="none" stroke="black" stroke-dasharray="1,5" d="M83,-131.81C83,-115.42 83,-90.35 83,-70.39"/>
<polygon fill="black" stroke="black" points="86.5,-70.21 83,-60.21 79.5,-70.21 86.5,-70.21"/>
<text text-anchor="middle" x="183" y="-102.8" font-family="Times,serif" font-size="14.00">Combinatorial Kalman filter</text>
</g>
<!-- tracks&#45;&gt;tracks -->
<g id="edge18" class="edge">
<title>tracks&#45;&gt;tracks</title>
<path fill="none" stroke="green" stroke-dasharray="5,2" d="M150.34,-43.84C160.84,-42.97 168,-41.02 168,-38 168,-36.11 165.2,-34.64 160.54,-33.59"/>
<polygon fill="green" stroke="green" points="160.73,-30.09 150.34,-32.16 159.75,-37.02 160.73,-30.09"/>
</g>
<!-- tracks&#45;&gt;tracks -->
<g id="edge19" class="edge">
<title>tracks&#45;&gt;tracks</title>
<path fill="none" stroke="black" stroke-dasharray="5,2" d="M150.36,-50.72C170.4,-50.34 186,-46.1 186,-38 186,-31.35 175.51,-27.31 160.67,-25.86"/>
<polygon fill="black" stroke="black" points="160.54,-22.34 150.36,-25.28 160.15,-29.33 160.54,-22.34"/>
<text text-anchor="middle" x="233" y="-34.3" font-family="Times,serif" font-size="14.00">Kalman filter</text>
</g>
</g>
</svg>
